<svg width="126" height="35" viewBox="0 0 126 35" fill="none" xmlns="http://www.w3.org/2000/svg">
<rect width="126" height="35" fill="#F5F5F5"/>
<g id="Admin_Employees_List" clip-path="url(#clip0_1_2)">
<rect width="1440" height="1024" transform="translate(-47 -30)" fill="white"/>
<g id="Admin_Side_bar">
<g id="Frame 427319618" filter="url(#filter0_d_1_2)">
<rect width="220" height="1024" transform="translate(-47 -30)" fill="white"/>
</g>
</g>
<g id="Group 2022">
<path id="Subtract" fill-rule="evenodd" clip-rule="evenodd" d="M12.1572 25.9229C12.1572 27.0722 13.0879 27.9606 14.236 27.9072C15.3841 27.8539 16.3148 26.8789 16.3148 25.7296V20.219L22.4826 18.8802V34.5779C21.1814 34.8542 19.8281 35 18.439 35C8.25544 35 0 27.165 0 17.5C0 9.92853 5.06639 3.48012 12.1572 1.04181V17.0764L4.88298 18.6554C3.81578 18.887 3.1136 19.945 3.31461 21.0184C3.51562 22.0918 4.5437 22.7741 5.6109 22.5425L12.1572 21.1215V25.9229ZM26.6375 33.1794C32.7071 30.3152 36.8781 24.3699 36.8781 17.5C36.8781 7.83502 28.6227 0 18.439 0C17.7206 0 17.0118 0.0389953 16.3148 0.114878V16.1739L22.4826 14.8351V9.26366C22.4826 8.11508 23.4127 7.14073 24.5601 7.08739C25.7074 7.03404 26.6375 7.92189 26.6375 9.07047V13.9332L30.5895 13.0753C31.6567 12.8437 32.6848 13.5261 32.8858 14.5994C33.0868 15.6728 32.3846 16.7308 31.3174 16.9624L26.6375 17.9783V33.1794Z" fill="#FF5D25"/>
<g id="ohoh">
<path d="M51.6792 29.1243C50.0486 29.1243 48.5685 28.8507 47.2389 28.3035C45.9344 27.7325 44.9059 26.9473 44.1533 25.9481C43.4007 24.9488 43.0244 23.8187 43.0244 22.5578V17.5258C43.0244 16.241 43.3882 15.0752 44.1157 14.0284C44.8683 12.9815 45.8968 12.1607 47.2013 11.5659C48.5058 10.9473 49.9984 10.638 51.6792 10.638C53.36 10.638 54.8526 10.9473 56.1571 11.5659C57.4866 12.1607 58.5152 12.9815 59.2427 14.0284C59.9953 15.0752 60.3716 16.241 60.3716 17.5258V22.5578C60.3716 23.8187 59.9827 24.9488 59.205 25.9481C58.4525 26.9473 57.4114 27.7325 56.0818 28.3035C54.7773 28.8507 53.3098 29.1243 51.6792 29.1243ZM51.6792 25.3057C52.9335 25.3057 53.9118 25.0321 54.6143 24.4849C55.3418 23.9377 55.7055 23.2001 55.7055 22.2723V17.7399C55.7055 16.7644 55.3418 15.9793 54.6143 15.3845C53.9118 14.7659 52.9335 14.4566 51.6792 14.4566C50.4499 14.4566 49.4716 14.7659 48.7441 15.3845C48.0166 15.9793 47.6528 16.7644 47.6528 17.7399V22.2723C47.6528 23.2001 48.0166 23.9377 48.7441 24.4849C49.4716 25.0321 50.4499 25.3057 51.6792 25.3057Z" fill="#2F2F2F"/>
<path d="M65.209 6.92651C65.209 5.83209 65.6104 4.98748 66.4131 4.39268C67.2159 3.79789 68.3699 3.50049 69.875 3.50049V12.7793C69.5489 13.1124 69.2479 13.4931 68.9719 13.9213L69.1977 14.0641C70.9287 11.7801 73.1362 10.638 75.8205 10.638C77.0999 10.638 78.2288 10.9116 79.2071 11.4589C80.1855 12.0061 80.9381 12.7555 81.4649 13.7072C82.0168 14.6589 82.2927 15.7295 82.2927 16.9191V26.412C82.2927 27.3637 81.9039 28.0537 81.1262 28.4819C80.3485 28.9102 79.1695 29.1243 77.5891 29.1243V17.5615C77.5891 16.6574 77.3006 15.9198 76.7236 15.3488C76.1717 14.7778 75.3564 14.4923 74.2777 14.4923C72.9983 14.4923 71.9447 14.873 71.1168 15.6343C70.289 16.3719 69.875 17.2998 69.875 18.418V26.412C69.875 27.3637 69.4862 28.0537 68.7085 28.4819C67.9308 28.9102 66.7643 29.1243 65.209 29.1243V6.92651Z" fill="#2F2F2F"/>
<path d="M95.3866 29.1243C93.756 29.1243 92.2759 28.8507 90.9463 28.3035C89.6418 27.7325 88.6133 26.9473 87.8607 25.9481C87.1081 24.9488 86.7318 23.8187 86.7318 22.5578V17.5258C86.7318 16.241 87.0956 15.0752 87.8231 14.0284C88.5757 12.9815 89.6042 12.1607 90.9087 11.5659C92.2132 10.9473 93.7058 10.638 95.3866 10.638C97.0674 10.638 98.56 10.9473 99.8645 11.5659C101.194 12.1607 102.223 12.9815 102.95 14.0284C103.703 15.0752 104.079 16.241 104.079 17.5258V22.5578C104.079 23.8187 103.69 24.9488 102.912 25.9481C102.16 26.9473 101.119 27.7325 99.7892 28.3035C98.4847 28.8507 97.0172 29.1243 95.3866 29.1243ZM95.3866 25.3057C96.6409 25.3057 97.6193 25.0321 98.3217 24.4849C99.0492 23.9377 99.4129 23.2001 99.4129 22.2723V17.7399C99.4129 16.7644 99.0492 15.9793 98.3217 15.3845C97.6193 14.7659 96.6409 14.4566 95.3866 14.4566C94.1574 14.4566 93.179 14.7659 92.4515 15.3845C91.724 15.9793 91.3602 16.7644 91.3602 17.7399V22.2723C91.3602 23.2001 91.724 23.9377 92.4515 24.4849C93.179 25.0321 94.1574 25.3057 95.3866 25.3057Z" fill="#2F2F2F"/>
<path d="M108.916 6.92651C108.916 5.83209 109.318 4.98748 110.121 4.39268C110.923 3.79789 112.077 3.50049 113.582 3.50049V12.7793C113.256 13.1124 112.955 13.4931 112.679 13.9213L112.905 14.0641C114.636 11.7801 116.844 10.638 119.528 10.638C120.807 10.638 121.936 10.9116 122.915 11.4589C123.893 12.0061 124.645 12.7555 125.172 13.7072C125.724 14.6589 126 15.7295 126 16.9191V26.412C126 27.3637 125.611 28.0537 124.834 28.4819C124.056 28.9102 122.877 29.1243 121.296 29.1243V17.5615C121.296 16.6574 121.008 15.9198 120.431 15.3488C119.879 14.7778 119.064 14.4923 117.985 14.4923C116.706 14.4923 115.652 14.873 114.824 15.6343C113.996 16.3719 113.582 17.2998 113.582 18.418V26.412C113.582 27.3637 113.194 28.0537 112.416 28.4819C111.638 28.9102 110.472 29.1243 108.916 29.1243V6.92651Z" fill="#2F2F2F"/>
</g>
</g>
</g>
<defs>
<filter id="filter0_d_1_2" x="-61" y="-42" width="252" height="1056" filterUnits="userSpaceOnUse" color-interpolation-filters="sRGB">
<feFlood flood-opacity="0" result="BackgroundImageFix"/>
<feColorMatrix in="SourceAlpha" type="matrix" values="0 0 0 0 0 0 0 0 0 0 0 0 0 0 0 0 0 0 127 0" result="hardAlpha"/>
<feOffset dx="2" dy="4"/>
<feGaussianBlur stdDeviation="8"/>
<feComposite in2="hardAlpha" operator="out"/>
<feColorMatrix type="matrix" values="0 0 0 0 0.745833 0 0 0 0 0.745833 0 0 0 0 0.745833 0 0 0 0.25 0"/>
<feBlend mode="normal" in2="BackgroundImageFix" result="effect1_dropShadow_1_2"/>
<feBlend mode="normal" in="SourceGraphic" in2="effect1_dropShadow_1_2" result="shape"/>
</filter>
<clipPath id="clip0_1_2">
<rect width="1440" height="1024" fill="white" transform="translate(-47 -30)"/>
</clipPath>
</defs>
</svg>
