<svg width="84" height="84" viewBox="0 0 84 84" fill="none" xmlns="http://www.w3.org/2000/svg">
<g id="Group 2">
<circle id="Ellipse 3" cx="42" cy="42" r="42" fill="#FC003C"/>
<g id="contact_support">
<mask id="mask0_1_10970" style="mask-type:alpha" maskUnits="userSpaceOnUse" x="14" y="14" width="55" height="55">
<rect id="Bounding box" x="14" y="14" width="55" height="55" fill="#D9D9D9"/>
</mask>
<g mask="url(#mask0_1_10970)">
<path id="contact_support_2" d="M41.5 64.4166L40.9271 57.5416H40.3542C34.9306 57.5416 30.3281 55.651 26.5469 51.8697C22.7656 48.0885 20.875 43.486 20.875 38.0624C20.875 32.6388 22.7656 28.0364 26.5469 24.2551C30.3281 20.4739 34.9306 18.5833 40.3542 18.5833C43.066 18.5833 45.5964 19.0893 47.9453 20.1015C50.2943 21.1136 52.3568 22.5077 54.1328 24.2838C55.9089 26.0598 57.3029 28.1223 58.3151 30.4713C59.3273 32.8202 59.8333 35.3506 59.8333 38.0624C59.8333 40.927 59.3655 43.677 58.4297 46.3124C57.4939 48.9478 56.2144 51.3923 54.5911 53.6457C52.9679 55.8992 51.0391 57.9426 48.8047 59.776C46.5703 61.6093 44.1354 63.1562 41.5 64.4166ZM46.0833 56.052C48.7951 53.7603 51.0009 51.0772 52.7005 48.0025C54.4002 44.9279 55.25 41.6145 55.25 38.0624C55.25 33.8992 53.8082 30.3758 50.9245 27.4921C48.0408 24.6084 44.5174 23.1666 40.3542 23.1666C36.191 23.1666 32.6675 24.6084 29.7839 27.4921C26.9002 30.3758 25.4583 33.8992 25.4583 38.0624C25.4583 42.2256 26.9002 45.749 29.7839 48.6327C32.6675 51.5164 36.191 52.9582 40.3542 52.9582H46.0833V56.052ZM40.2969 50.6093C40.9462 50.6093 41.5 50.3801 41.9583 49.9218C42.4167 49.4635 42.6458 48.9096 42.6458 48.2603C42.6458 47.611 42.4167 47.0572 41.9583 46.5989C41.5 46.1405 40.9462 45.9114 40.2969 45.9114C39.6476 45.9114 39.0937 46.1405 38.6354 46.5989C38.1771 47.0572 37.9479 47.611 37.9479 48.2603C37.9479 48.9096 38.1771 49.4635 38.6354 49.9218C39.0937 50.3801 39.6476 50.6093 40.2969 50.6093ZM38.6354 43.3333H42.0729C42.0729 42.1874 42.1875 41.3853 42.4167 40.927C42.6458 40.4687 43.3715 39.6284 44.5938 38.4062C45.2812 37.7187 45.8542 36.9739 46.3125 36.1718C46.7708 35.3697 47 34.5103 47 33.5937C47 31.6458 46.3411 30.1848 45.0234 29.2109C43.7057 28.2369 42.1493 27.7499 40.3542 27.7499C38.6736 27.7499 37.2604 28.2178 36.1146 29.1536C34.9687 30.0893 34.1667 31.2256 33.7083 32.5624L36.9167 33.8228C37.1076 33.1735 37.4705 32.5338 38.0052 31.9036C38.5399 31.2734 39.3229 30.9583 40.3542 30.9583C41.3854 30.9583 42.1589 31.2447 42.6745 31.8176C43.1901 32.3905 43.4479 33.0208 43.4479 33.7083C43.4479 34.3576 43.2569 34.94 42.875 35.4556C42.4931 35.9713 42.0347 36.4964 41.5 37.0312C40.1632 38.177 39.3516 39.0841 39.0651 39.7525C38.7786 40.4209 38.6354 41.6145 38.6354 43.3333Z" fill="white"/>
</g>
</g>
</g>
</svg>
